# xmcd
#
# Track frame offsets:
# 150
# 16643
# 28838
# 41779
# 56550
# 70616
# 87379
# 103578
# 119260
# 134969
# 148592
# 162669
# 172793
# 185881
# 195926
# 210640
# 225850
#
# Disc length: 3153 seconds
#
#
# Revision: 0
# Processed by: cddbd v1.5.1PL0 Copyright (c) Steve Scherf et al.
# Submitted via: FreeRIP 2.942 
#
DISCID=eb0c4f11
DTITLE=Teodoro e Sampaio - Anna Julia
DYEAR=2005
DGENRE=
TTITLE0=Anna Julia
TTITLE1=Aconteceu comigo
TTITLE2=Tonto de paixão
TTITLE3=Ela vai voltar
TTITLE4=Mulher boa
TTITLE5=O tocador
TTITLE6=Toco da saia
TTITLE7=Cunhado
TTITLE8=Ela mexe comigo
TTITLE9=Só to comendo
TTITLE10=Namorada do carinha
TTITLE11=Deixa a paixão entrar
TTITLE12=Na mira do chifrudo
TTITLE13=Silicone lá
TTITLE14=Apaixonado.com
TTITLE15=O garrafão
TTITLE16=Garanhão da madrugada
EXTD=
EXTT0=
EXTT1=
EXTT2=
EXTT3=
EXTT4=
EXTT5=
EXTT6=
EXTT7=
EXTT8=
EXTT9=
EXTT10=
EXTT11=
EXTT12=
EXTT13=
EXTT14=
EXTT15=
EXTT16=
PLAYORDER=
